<?xml version="1.0" encoding="UTF-8"?>
<svg width="18px" height="21px" viewBox="0 0 18 21" version="1.1" xmlns="http://www.w3.org/2000/svg" xmlns:xlink="http://www.w3.org/1999/xlink">
    <!-- Generator: Sketch 45 (43475) - http://www.bohemiancoding.com/sketch -->
    <title>bell-white</title>
    <desc>Created with Sketch.</desc>
    <defs></defs>
    <g id="mobile-designs" stroke="none" stroke-width="1" fill="none" fill-rule="evenodd">
        <g id="filters-2" transform="translate(-278.000000, -60.000000)" fill="#FFFFFF">
            <g id="Icons/ic_notification-white" transform="translate(274.000000, 57.000000)">
                <path d="M13.0673077,23.625 C12.5156222,23.625 12.0450741,23.4221775 11.655649,23.0165264 C11.266224,22.6108754 11.0715144,22.1322143 11.0715144,21.5805288 L15.063101,21.5805288 C15.063101,22.1322143 14.8683914,22.6108754 14.4789663,23.0165264 C14.0895413,23.4221775 13.6189931,23.625 13.0673077,23.625 Z M19.6388221,17.5402644 L21.6346154,19.5847356 L21.6346154,20.6069712 L4.5,20.6069712 L4.5,19.5847356 L6.49579327,17.5402644 L6.49579327,11.9909856 C6.49579327,10.4657376 6.97445435,9.11088333 7.93179087,7.92638221 C8.88912738,6.7418811 10.0979494,5.97115563 11.5582933,5.61418269 L11.5582933,4.88401442 C11.5582933,4.46213731 11.6962126,4.10516973 11.9720553,3.81310096 C12.247898,3.52103219 12.6129785,3.375 13.0673077,3.375 C13.5216369,3.375 13.8867174,3.52103219 14.1625601,3.81310096 C14.4384028,4.10516973 14.5763221,4.46213731 14.5763221,4.88401442 L14.5763221,5.61418269 C16.036666,5.97115563 17.245488,6.7418811 18.2028245,7.92638221 C19.160161,9.11088333 19.6388221,10.4657376 19.6388221,11.9909856 L19.6388221,17.5402644 Z" id="ic_notification"></path>
            </g>
        </g>
    </g>
</svg>