<?xml version="1.0" encoding="UTF-8"?>
<svg width="12px" height="16px" viewBox="0 0 12 16" version="1.1" xmlns="http://www.w3.org/2000/svg" xmlns:xlink="http://www.w3.org/1999/xlink">
    <!-- Generator: Sketch 46.2 (44496) - http://www.bohemiancoding.com/sketch -->
    <title>icon-bookmark-closed</title>
    <desc>Created with Sketch.</desc>
    <defs>
        <path d="M10.9125,0 C11.0562507,0 11.1937493,0.0317247323 11.325,0.0951751487 C11.531251,0.18682575 11.6953119,0.331349531 11.8171875,0.528750826 C11.9390631,0.726152122 12,0.944700278 12,1.18440185 L12,14.8155981 C12,15.0552997 11.9390631,15.2738479 11.8171875,15.4712492 C11.6953119,15.6686505 11.531251,15.8131742 11.325,15.9048249 C11.2062494,15.9612252 11.0687508,15.989425 10.9125,15.989425 C10.6124985,15.989425 10.3531261,15.8766259 10.134375,15.6510245 L6,11.1672174 L1.865625,15.6510245 C1.64062388,15.883676 1.38125147,16 1.0875,16 C0.943749281,16 0.806250656,15.9682753 0.675,15.9048249 C0.468748969,15.8131742 0.304688109,15.6686505 0.1828125,15.4712492 C0.0609368906,15.2738479 0,15.0552997 0,14.8155981 L0,1.18440185 C0,0.944700278 0.0609368906,0.726152122 0.1828125,0.528750826 C0.304688109,0.331349531 0.468748969,0.18682575 0.675,0.0951751487 C0.806250656,0.0317247323 0.943749281,0 1.0875,0 L10.9125,0 Z" id="path-1"></path>
    </defs>
    <g id="Symbols:-ATOMS" stroke="none" stroke-width="1" fill="none" fill-rule="evenodd">
        <g id="ATOM-/ICO-/Bookmark-active">
            <mask id="mask-2" fill="white">
                <use xlink:href="#path-1"></use>
            </mask>
            <use id="icon-bookmark-closed" fill="#545454" xlink:href="#path-1"></use>
        </g>
    </g>
</svg>