<?xml version="1.0" encoding="UTF-8"?>
<svg width="18px" height="16px" viewBox="0 0 18 16" version="1.1" xmlns="http://www.w3.org/2000/svg" xmlns:xlink="http://www.w3.org/1999/xlink">
    <!-- Generator: Sketch 46.2 (44496) - http://www.bohemiancoding.com/sketch -->
    <title>Mask</title>
    <desc>Created with Sketch.</desc>
    <defs>
        <path d="M4.51327776,15.8528059 C4.11610719,15.6577737 3.81032099,15.2787489 3.64864093,14.7819687 C3.55374177,14.4912603 3.49750523,14.1858326 3.48344609,13.8767249 C3.46235739,13.4204232 3.45532782,12.9567617 3.46938696,12.4931003 C2.30950828,11.8564857 1.38160534,10.9328427 0.787606864,9.82152714 C0.183064039,8.68813247 -0.0805447514,7.34866605 0.0213839807,5.94664213 C0.130342281,4.46734131 0.745429458,3.04691812 1.74714286,1.95032199 C2.7629154,0.842686293 4.0915037,0.154553818 5.49390246,0.018399264 C5.56419814,0.0110395584 5.64503817,0.00367985281 5.73290777,0 L5.75048169,0 L5.76805561,0 C6.75922466,0.00367985281 7.76445284,0.00367985281 8.73804798,0.00367985281 C9.34962037,0.00367985281 10.5797947,0.00367985281 11.9505604,0 L11.9681344,0 L11.9857083,0 C12.4356006,0.0220791168 12.737872,0.0478380865 12.8784634,0.0735970561 C14.495264,0.371665133 15.9117219,1.32842686 16.8677431,2.77460902 C17.8202495,4.20975161 18.1893018,5.93928243 17.9081191,7.63937443 C17.6445103,9.25114995 16.9064057,10.6310948 15.7711305,11.6393744 C14.6358553,12.6476541 13.2123678,13.1849126 11.6518038,13.1922723 C11.3917098,13.1922723 11.128101,13.1922723 10.8750366,13.1922723 C10.3759373,13.1922723 9.85574925,13.1885925 9.35313515,13.2033119 C9.30744296,13.2069917 9.25823599,13.2217111 9.21957337,13.2474701 C8.82943236,13.5639374 8.43577656,13.898804 8.0561799,14.2189512 C7.6660389,14.5464581 7.26535353,14.8850046 6.86115339,15.2161914 C6.50264543,15.5068997 6.14765226,15.724011 5.80320344,15.8675253 C5.5958312,15.9521619 5.3779146,16 5.15648321,16 C4.93153705,16 4.71362045,15.9521619 4.51327776,15.8528059 Z M10.8750366,11.8270469 C11.128101,11.8270469 11.388195,11.8270469 11.6412595,11.8270469 C14.185963,11.8123275 16.185875,10.0386385 16.6146786,7.40386385 C17.0716005,4.63661454 15.2509425,1.89144434 12.6429729,1.41306348 L12.6359433,1.41306348 C12.5902511,1.40570377 12.3863936,1.38362466 11.9329865,1.36154554 C10.5657356,1.36522539 9.3425908,1.36522539 8.73453319,1.36522539 C7.76445284,1.36522539 6.76273944,1.36522539 5.77508517,1.36154554 C5.72236342,1.36522539 5.66964166,1.36890524 5.61340512,1.37626495 C3.38503214,1.59337626 1.49759321,3.64673413 1.31833923,6.04967801 C1.1496296,8.35326587 2.17594649,10.274149 4.13016632,11.3155474 C4.57654387,11.551058 4.79446047,11.9374425 4.77337177,12.4563017 C4.75931264,12.9052438 4.75931264,13.3615455 4.78391612,13.8031279 C4.79446047,13.9871205 4.82960831,14.1711132 4.88584486,14.3440662 C4.93153705,14.4802208 4.99480316,14.5795768 5.06509883,14.6126955 C5.14242408,14.649494 5.25138238,14.6200552 5.32870762,14.5906164 C5.55365379,14.4986201 5.79968866,14.3440662 6.05978267,14.1343146 C6.45343846,13.8141674 6.84709425,13.4829807 7.23372048,13.1554738 C7.6203467,12.8279669 8.02454685,12.4894204 8.42523221,12.1619135 L8.43929135,12.150874 C8.69235578,11.9595216 8.99111241,11.849126 9.30392818,11.8380865 L9.31095775,11.8380865 C9.6694657,11.8270469 10.0314884,11.8270469 10.3864816,11.8270469 L10.8750366,11.8270469 Z" id="path-1"></path>
    </defs>
    <g id="Symbols:-ATOMS" stroke="none" stroke-width="1" fill="none" fill-rule="evenodd">
        <g id="ATOM-/ICO-/Comments">
            <g id="icon-chat-open">
                <mask id="mask-2" fill="white">
                    <use xlink:href="#path-1"></use>
                </mask>
                <use id="Mask" fill="#545454" fill-rule="nonzero" xlink:href="#path-1"></use>
            </g>
        </g>
    </g>
</svg>