<?xml version="1.0" encoding="UTF-8"?>
<svg width="18px" height="16px" viewBox="0 0 18 16" version="1.1" xmlns="http://www.w3.org/2000/svg" xmlns:xlink="http://www.w3.org/1999/xlink">
    <!-- Generator: Sketch 46.2 (44496) - http://www.bohemiancoding.com/sketch -->
    <title>icon-chat-closed</title>
    <desc>Created with Sketch.</desc>
    <defs>
        <path d="M4.51327776,15.8528059 C4.11610719,15.6577737 3.81032099,15.2787489 3.64864093,14.7819687 C3.55374177,14.4912603 3.49750523,14.1858326 3.48344609,13.8767249 C3.46235739,13.4204232 3.45532782,12.9567617 3.46938696,12.4931003 C2.30950828,11.8564857 1.38160534,10.9328427 0.787606864,9.82152714 C0.183064039,8.68813247 -0.0805447514,7.34866605 0.0213839807,5.94664213 C0.130342281,4.46734131 0.745429458,3.04691812 1.74714286,1.95032199 C2.7629154,0.842686293 4.0915037,0.154553818 5.49390246,0.018399264 C5.56419814,0.0110395584 5.64503817,0.00367985281 5.73290777,0 L5.75048169,0 L5.76805561,0 C6.75922466,0.00367985281 7.76445284,0.00367985281 8.73804798,0.00367985281 C9.34962037,0.00367985281 10.5797947,0.00367985281 11.9505604,0 L11.9681344,0 L11.9857083,0 C12.4356006,0.0220791168 12.737872,0.0478380865 12.8784634,0.0735970561 C14.495264,0.371665133 15.9117219,1.32842686 16.8677431,2.77460902 C17.8202495,4.20975161 18.1893018,5.93928243 17.9081191,7.63937443 C17.6445103,9.25114995 16.9064057,10.6310948 15.7711305,11.6393744 C14.6358553,12.6476541 13.2123678,13.1849126 11.6518038,13.1922723 C11.3917098,13.1922723 11.128101,13.1922723 10.8750366,13.1922723 C10.3759373,13.1922723 9.85574925,13.1885925 9.35313515,13.2033119 C9.30744296,13.2069917 9.25823599,13.2217111 9.21957337,13.2474701 C8.82943236,13.5639374 8.43577656,13.898804 8.0561799,14.2189512 C7.6660389,14.5464581 7.26535353,14.8850046 6.86115339,15.2161914 C6.50264543,15.5068997 6.14765226,15.724011 5.80320344,15.8675253 C5.5958312,15.9521619 5.3779146,16 5.15648321,16 C4.93153705,16 4.71362045,15.9521619 4.51327776,15.8528059 Z" id="path-1"></path>
    </defs>
    <g id="Symbols:-ATOMS" stroke="none" stroke-width="1" fill="none" fill-rule="evenodd">
        <g id="ATOM-/ICO-/Comments-solid">
            <mask id="mask-2" fill="white">
                <use xlink:href="#path-1"></use>
            </mask>
            <use id="icon-chat-closed" fill="#545454" fill-rule="nonzero" xlink:href="#path-1"></use>
        </g>
    </g>
</svg>