<?xml version="1.0" encoding="UTF-8"?>
<svg width="10px" height="16px" viewBox="0 0 10 16" version="1.1" xmlns="http://www.w3.org/2000/svg" xmlns:xlink="http://www.w3.org/1999/xlink">
    <!-- Generator: Sketch 46.2 (44496) - http://www.bohemiancoding.com/sketch -->
    <title>icon-lightbulb</title>
    <desc>Created with Sketch.</desc>
    <defs>
        <path d="M8.14835948,1.23221472 C7.10346901,0.32664298 5.71028172,-0.160972571 4.31709443,0.0480055223 C2.22731349,0.32664298 0.416170013,1.99846773 0.0678731903,4.08824867 C-0.141104903,5.27245786 0.137532555,6.52632642 0.8341262,7.50155753 C1.67003857,8.82508545 2.15765413,8.05883244 2.15765413,9.38236037 L2.15765413,11.1238445 C2.15765413,11.5418007 2.43629158,11.8204381 2.85424777,11.8204381 L7.03380964,11.8204381 C7.45176583,11.8204381 7.73040329,11.5418007 7.73040329,11.1238445 L7.73040329,9.45201973 C7.73040329,8.40712927 7.93938138,8.96440418 8.84495312,7.71053562 C9.4718874,6.87462325 9.82018422,5.89939214 9.82018422,4.85450167 C9.75052486,3.46131438 9.12359058,2.13778646 8.14835948,1.23221472 Z M7.66074392,6.94428261 C6.75517219,8.19815117 6.26755663,7.71053562 6.26755663,9.5216791 L6.26755663,10.4272508 L3.48118205,10.4272508 L3.48118205,9.38236037 C3.48118205,7.78019499 2.9935665,8.26781054 1.94867603,6.73530452 C1.46106048,6.03871087 1.25208239,5.13313913 1.39140112,4.29722676 C1.60037921,2.76472074 2.92390714,1.58051154 4.38675379,1.37153345 C5.43164426,1.23221472 6.40687536,1.58051154 7.10346901,2.20744582 C7.86972202,2.8343801 8.2876782,3.80961121 8.2876782,4.78484231 C8.35733757,5.62075468 8.14835948,6.31734833 7.66074392,6.94428261 Z M6.96415028,12.5170318 C7.38210647,12.5170318 7.66074392,12.7956692 7.66074392,13.2136254 C7.66074392,13.6315816 7.38210647,13.9102191 6.96415028,13.9102191 L2.78458841,13.9102191 C2.36663222,13.9102191 2.08799476,13.6315816 2.08799476,13.2136254 C2.08799476,12.7956692 2.36663222,12.5170318 2.78458841,12.5170318 L6.96415028,12.5170318 Z M5.57096299,14.6068127 C5.98891918,14.6068127 6.26755663,14.8854502 6.26755663,15.3034064 C6.26755663,15.7213625 5.98891918,16 5.57096299,16 L4.1777757,16 C3.75981951,16 3.48118205,15.7213625 3.48118205,15.3034064 C3.48118205,14.8854502 3.75981951,14.6068127 4.1777757,14.6068127 L5.57096299,14.6068127 Z" id="path-1"></path>
    </defs>
    <g id="Symbols:-ATOMS" stroke="none" stroke-width="1" fill="none" fill-rule="evenodd">
        <g id="ATOM-/ICO-/Insightful">
            <mask id="mask-2" fill="white">
                <use xlink:href="#path-1"></use>
            </mask>
            <use id="icon-lightbulb" fill="#545454" fill-rule="nonzero" xlink:href="#path-1"></use>
        </g>
    </g>
</svg>