<?xml version="1.0" encoding="UTF-8"?>
<svg width="16px" height="16px" viewBox="0 0 16 16" version="1.1" xmlns="http://www.w3.org/2000/svg" xmlns:xlink="http://www.w3.org/1999/xlink">
    <!-- Generator: Sketch 45 (43475) - http://www.bohemiancoding.com/sketch -->
    <title>Icon - Axioms Copy 4</title>
    <desc>Created with Sketch.</desc>
    <defs>
        <path d="M4.27320645,15.7438028 C4.61480266,15.4010226 4.61480266,14.8465208 4.27320645,14.5037405 L4.08819715,14.3187312 L6.16663494,13.3953515 C6.18830269,13.418686 6.2083037,13.4436873 6.22997145,13.4670218 L7.16668519,14.3887347 C8.18073752,15.3786944 9.76702802,15.476217 10.8947077,14.6179275 C12.0223873,13.7596379 12.3509635,12.2046891 11.6669114,10.9635626 L13.9786942,9.9418446 L14.5003871,10.4585372 C14.8428208,10.800971 15.3980156,10.800971 15.7404494,10.4585372 C16.0828832,10.1161035 16.0828832,9.56090867 15.7404494,9.21847492 L6.78166584,0.256357859 C6.55955457,0.0348420612 6.23613803,-0.0513520249 5.93324408,0.0302440789 C5.63035014,0.111840183 5.39399559,0.348830087 5.31321292,0.651941989 C5.23243025,0.955053891 5.31949226,1.27823788 5.54160353,1.49975368 L5.97662539,1.93477554 L1.58807151,11.8186056 L1.49973374,11.7269343 C1.15729998,11.3835801 0.60135895,11.3828338 0.258004682,11.7252676 C-0.0853495866,12.0677013 -0.0860958233,12.6236424 0.256337915,12.9669966 L3.03314413,15.7438028 C3.37592438,16.0853991 3.9304262,16.0853991 4.27320645,15.7438028 L4.27320645,15.7438028 Z M10.0284957,13.2103422 C9.56198528,13.6759419 8.80658789,13.6759419 8.3400775,13.2103422 L7.80338386,12.6669816 L10.1368345,11.6369298 C10.5020373,12.1144697 10.4556432,12.7889693 10.0284957,13.2120089 L10.0284957,13.2103422 Z M7.31002573,3.26484238 L8.58675656,4.54157321 L3.78484857,11.2002412 L7.31002573,3.26484238 Z" id="path-1"></path>
    </defs>
    <g id="mobile-designs" stroke="none" stroke-width="1" fill="none" fill-rule="evenodd">
        <g id="profile-other" transform="translate(-99.000000, -317.000000)">
            <g id="Group-2-Copy-4" transform="translate(25.000000, 314.000000)">
                <g id="Icon---Actions" transform="translate(72.000000, 1.000000)">
                    <circle id="Oval" cx="10" cy="10" r="10"></circle>
                    <g id="Color-blue" stroke-width="1" fill-rule="evenodd" transform="translate(2.000000, 2.000000)">
                        <mask id="mask-2" fill="white">
                            <use xlink:href="#path-1"></use>
                        </mask>
                        <use id="Mask" fill="#FFFFFF" fill-rule="nonzero" xlink:href="#path-1"></use>
                        <g id="Color-red" mask="url(#mask-2)" fill="#F05A28">
                            <g transform="translate(-2.000000, -2.000000)" id="Rectangle-3">
                                <rect x="0" y="0" width="20" height="20"></rect>
                            </g>
                        </g>
                    </g>
                </g>
            </g>
        </g>
    </g>
</svg>