<?xml version="1.0" encoding="UTF-8"?>
<svg width="12px" height="16px" viewBox="0 0 12 16" version="1.1" xmlns="http://www.w3.org/2000/svg" xmlns:xlink="http://www.w3.org/1999/xlink">
    <!-- Generator: Sketch 45 (43475) - http://www.bohemiancoding.com/sketch -->
    <title>Icon - Axioms Copy 3</title>
    <desc>Created with Sketch.</desc>
    <defs>
        <path d="M8.03114379,11.9937875 L6.02921669,11.9937875 L6.02921669,8.94399596 L8.5396481,6.43356455 C8.7815579,6.19165474 8.7815579,5.8016369 8.5396481,5.56096131 C8.29897251,5.3190515 7.90895465,5.3190515 7.66704484,5.56096131 L5.41209983,7.81590632 L3.15592057,5.56096131 C2.91524499,5.3190515 2.52399291,5.3190515 2.28331733,5.56096131 C2.04264175,5.8016369 2.04264175,6.19165474 2.28331733,6.43356455 L4.79498295,8.94399596 L4.79498295,11.9937875 L2.79182162,11.9937875 C2.72517301,10.9619681 2.26850651,9.95483337 1.48970505,9.13406794 C0.296201029,7.87885225 -0.216005962,6.1682043 0.083912819,4.43780863 C0.461588343,2.2667915 2.16359665,0.525287714 4.31856874,0.106882476 C5.9415861,-0.215252526 7.59916198,0.199450006 8.85067499,1.23373787 C10.1046565,2.2667915 10.8242147,3.78983592 10.8242147,5.41161903 C10.8242147,6.80383467 10.2934942,8.12693324 9.33202613,9.13653642 C8.55322467,9.95359914 8.09779242,10.9607339 8.03114379,11.9937875 L8.03114379,11.9937875 Z M7.52973817,14.8579772 L3.29446263,14.8579772 C2.9785845,14.8579772 2.7242855,15.1122762 2.7242855,15.4281543 C2.7242855,15.742892 2.9785845,15.9983314 3.29446263,15.9983314 L7.52973817,15.9983314 C7.84447594,15.9983314 8.09991528,15.742892 8.09991528,15.4281543 C8.09991528,15.1122762 7.84447594,14.8579772 7.52973817,14.8579772 L7.52973817,14.8579772 Z M8.13298556,12.9604278 L2.69121524,12.9604278 C2.37647749,12.9604278 2.12103813,13.2147267 2.12103813,13.5306049 C2.12103813,13.8453426 2.37647749,14.100782 2.69121524,14.100782 L8.13298556,14.100782 C8.44772331,14.100782 8.70316267,13.8453426 8.70316267,13.5306049 C8.70316267,13.2147267 8.44772331,12.9604278 8.13298556,12.9604278 L8.13298556,12.9604278 Z" id="path-1"></path>
    </defs>
    <g id="mobile-designs" stroke="none" stroke-width="1" fill="none" fill-rule="evenodd">
        <g id="profile-other" transform="translate(-29.000000, -317.000000)">
            <g id="Group-2-Copy-4" transform="translate(25.000000, 314.000000)">
                <g id="Icon---Insights" transform="translate(0.000000, 1.000000)">
                    <circle id="Oval" cx="10" cy="10" r="10"></circle>
                    <g id="Color-blue" stroke-width="1" fill-rule="evenodd" transform="translate(4.600000, 2.000000)">
                        <mask id="mask-2" fill="white">
                            <use xlink:href="#path-1"></use>
                        </mask>
                        <use id="Mask" fill="#FFFFFF" fill-rule="nonzero" xlink:href="#path-1"></use>
                        <g id="Color-green" mask="url(#mask-2)" fill="#54B74C">
                            <g transform="translate(-4.600000, -2.000000)" id="Rectangle-3">
                                <rect x="0" y="0" width="20" height="20"></rect>
                            </g>
                        </g>
                    </g>
                </g>
            </g>
        </g>
    </g>
</svg>