<?xml version="1.0" encoding="UTF-8"?>
<svg width="16px" height="16px" viewBox="0 0 16 16" version="1.1" xmlns="http://www.w3.org/2000/svg" xmlns:xlink="http://www.w3.org/1999/xlink">
    <!-- Generator: Sketch 46.2 (44496) - http://www.bohemiancoding.com/sketch -->
    <title>icon-loupe</title>
    <desc>Created with Sketch.</desc>
    <defs>
        <path d="M11.4166667,11.0416667 L16,15.625 L14.625,17 L10.0833333,12.4166667 L10.0833333,11.7083333 L9.79166667,11.4583333 C8.68055,12.4027825 7.38889625,12.875 5.91666667,12.875 C4.27776958,12.875 2.88195021,12.2986169 1.72916667,11.1458333 C0.576383125,9.99304979 0,8.59723042 0,6.95833333 C0,5.31943625 0.576383125,3.9166725 1.72916667,2.75 C2.88195021,1.5833275 4.26388083,1 5.875,1 C7.51389708,1 8.90971646,1.5833275 10.0625,2.75 C11.2152835,3.9166725 11.7916667,5.31943625 11.7916667,6.95833333 C11.7916667,8.43056292 11.3194492,9.72221667 10.375,10.8333333 L10.6666667,11.0416667 L11.4166667,11.0416667 Z M5.91666667,11.0416667 C7.05556125,11.0416667 8.02777375,10.6458373 8.83333333,9.85416667 C9.63889292,9.06249604 10.0416667,8.09722792 10.0416667,6.95833333 C10.0416667,5.81943875 9.63889292,4.84722625 8.83333333,4.04166667 C8.02777375,3.23610708 7.05556125,2.83333333 5.91666667,2.83333333 C4.77777208,2.83333333 3.81250396,3.23610708 3.02083333,4.04166667 C2.22916271,4.84722625 1.83333333,5.81943875 1.83333333,6.95833333 C1.83333333,8.09722792 2.22916271,9.06249604 3.02083333,9.85416667 C3.81250396,10.6458373 4.77777208,11.0416667 5.91666667,11.0416667 Z" id="path-1"></path>
    </defs>
    <g id="Symbols:-ATOMS" stroke="none" stroke-width="1" fill="none" fill-rule="evenodd">
        <g id="ATOM-/ICO-/Search" transform="translate(0.000000, -1.000000)">
            <mask id="mask-2" fill="white">
                <use xlink:href="#path-1"></use>
            </mask>
            <use id="icon-loupe" fill="#FFFFFF" xlink:href="#path-1"></use>
        </g>
    </g>
</svg>