<?xml version="1.0" encoding="UTF-8"?>
<svg width="40px" height="40px" viewBox="0 0 40 40" version="1.1" xmlns="http://www.w3.org/2000/svg" xmlns:xlink="http://www.w3.org/1999/xlink">
    <!-- Generator: Sketch 46.2 (44496) - http://www.bohemiancoding.com/sketch -->
    <title>ATOM /ICO /Facebook</title>
    <desc>Created with Sketch.</desc>
    <defs>
        <ellipse id="path-1" cx="19.6721311" cy="20" rx="19.6721311" ry="20"></ellipse>
        <path d="M2.1609683,4.09413528 L2.1609683,7.00469247 L0,7.00469247 L0,10.5637331 L2.1609683,10.5637331 L2.1609683,21.1399994 L6.60005592,21.1399994 L6.60005592,10.564028 L9.57888983,10.564028 C9.57888983,10.564028 9.85792047,8.85749524 9.99315221,6.99156946 L6.61684159,6.99156946 L6.61684159,4.55811009 C6.61684159,4.19440102 7.10083673,3.70516319 7.57925324,3.70516319 L9.99778446,3.70516319 L9.99778446,0 L6.70933711,0 C2.05123883,-0.000245749366 2.1609683,3.56233366 2.1609683,4.09413528" id="path-3"></path>
    </defs>
    <g id="Symbols:-ATOMS" stroke="none" stroke-width="1" fill="none" fill-rule="evenodd">
        <g id="ATOM-/ICO-/Facebook">
            <g id="COL-/White-Copy-3">
                <mask id="mask-2" fill="white">
                    <use xlink:href="#path-1"></use>
                </mask>
                <g id="Mask"></g>
                <g id="COL-/Gray-66" mask="url(#mask-2)" fill="#A8A8A8">
                    <rect id="Gray-66---A8A8A8" x="0" y="0" width="40" height="40"></rect>
                </g>
            </g>
            <g id="COL-/White-Copy-2" transform="translate(15.000000, 9.000000)">
                <mask id="mask-4" fill="white">
                    <use xlink:href="#path-3"></use>
                </mask>
                <use id="Mask" fill="#9B9B9B" xlink:href="#path-3"></use>
                <g id="COL-/White" mask="url(#mask-4)" fill="#FFFFFF">
                    <g transform="translate(-15.000000, -9.000000)" id="White-FFFFFF">
                        <rect x="0" y="0" width="40" height="40"></rect>
                    </g>
                </g>
            </g>
        </g>
    </g>
</svg>