<?xml version="1.0" encoding="UTF-8"?>
<svg width="18px" height="14px" viewBox="0 0 18 14" version="1.1" xmlns="http://www.w3.org/2000/svg" xmlns:xlink="http://www.w3.org/1999/xlink">
    <!-- Generator: Sketch 46.2 (44496) - http://www.bohemiancoding.com/sketch -->
    <title>icon-share-open</title>
    <desc>Created with Sketch.</desc>
    <defs></defs>
    <g id="Symbols:-ATOMS" stroke="none" stroke-width="1" fill="none" fill-rule="evenodd">
        <g id="ATOM-/ICO-/Share-outline" fill-rule="nonzero" fill="#545454">
            <path d="M11.4777459,0 C11.5963324,0 11.7149188,0.0290456432 11.8038587,0.116182573 L17.851767,5.7219917 C17.9407068,5.80912863 18,5.9253112 18,6.04149378 C18,6.15767635 17.9407068,6.27385892 17.851767,6.36099585 L11.7445654,12.1410788 C11.6556256,12.2282158 11.5666858,12.2572614 11.4480993,12.2572614 C11.3888061,12.2572614 11.3295129,12.2572614 11.2702197,12.2282158 C11.1219866,12.1410788 11.0034002,11.9958506 11.0034002,11.8215768 L11.0034002,8.4813278 C10.8255205,8.45228216 10.6179943,8.45228216 10.3808214,8.45228216 C8.4537918,8.45228216 3.62139448,8.97510373 0.834613199,13.7676349 C0.745673371,13.9128631 0.597440325,14 0.449207278,14 C0.389914059,14 0.36026745,14 0.300974231,13.9709544 C0.0934479661,13.9128631 -0.0251384713,13.7095436 0.00450813807,13.5062241 C0.0341547474,13.4190871 1.27931234,4.0373444 11.0626934,3.74688797 L11.0626934,0.435684647 C11.0626934,0.261410788 11.1516332,0.0871369295 11.3295129,0.0290456432 C11.3591595,0 11.4184527,0 11.4777459,0 Z M11.4777459,0.377593361 L11.4184527,0.377593361 C11.4184527,0.377593361 11.4184527,0.406639004 11.4184527,0.435684647 L11.4184527,3.74688797 L11.4184527,4.09543568 L11.0626934,4.09543568 C2.40588349,4.35684647 0.656733543,11.9958506 0.389914059,13.5643154 C0.389914059,13.5643154 0.389914059,13.593361 0.389914059,13.593361 C0.389914059,13.6224066 0.389914059,13.6514523 0.419560669,13.6514523 L0.449207278,13.6514523 C0.449207278,13.6514523 0.478853887,13.6224066 0.508500497,13.5643154 C3.3842216,8.59751037 8.36485197,8.0746888 10.3808214,8.0746888 C10.6476409,8.0746888 10.8551672,8.0746888 11.0626934,8.10373444 L11.3591595,8.16182573 L11.3591595,8.4813278 L11.3591595,11.8215768 C11.3591595,11.8215768 11.3888061,11.8506224 11.4184527,11.879668 C11.4480993,11.879668 11.4480993,11.879668 11.4480993,11.879668 C11.4480993,11.879668 11.4777459,11.879668 11.4777459,11.879668 L17.5849475,6.12863071 C17.6145941,6.09958506 17.6145941,6.07053942 17.6145941,6.07053942 C17.6145941,6.07053942 17.6145941,6.04149378 17.5849475,6.01244813 L11.5370392,0.406639004 C11.5370392,0.377593361 11.5073926,0.377593361 11.4777459,0.377593361 Z" id="icon-share-open"></path>
        </g>
    </g>
</svg>