<?xml version="1.0" encoding="UTF-8"?>
<svg width="16px" height="18px" viewBox="0 0 16 18" version="1.1" xmlns="http://www.w3.org/2000/svg" xmlns:xlink="http://www.w3.org/1999/xlink">
    <!-- Generator: Sketch 46.2 (44496) - http://www.bohemiancoding.com/sketch -->
    <title>icon-bell</title>
    <desc>Created with Sketch.</desc>
    <defs>
        <path d="M7.75989448,14.9296647 C4.63902778,14.9296647 0.772293566,14.5970247 0.104938423,12.972959 C-0.0324582245,12.620752 -0.169854872,11.9163379 0.634896919,11.1336556 C1.61630154,10.1553027 1.81258247,8.49210286 2.02849148,6.71150065 C2.38179715,3.77644206 2.83324327,0.117402344 7.74026638,0 C12.6865457,0.117402344 13.1379918,3.77644206 13.4912975,6.71150065 C13.7072065,8.47253581 13.9034874,10.1553027 14.884892,11.1336556 C15.6700157,11.9163379 15.5522472,12.640319 15.4148505,12.972959 C14.7474954,14.5970247 10.8807612,14.9296647 7.75989448,14.9296647 Z M1.69481391,12.4055143 C2.18551622,12.7772884 4.28572211,13.2860319 7.75989448,13.2860319 C11.2340668,13.2860319 13.3342727,12.7772884 13.824975,12.4055143 C13.805347,12.3663802 13.7660908,12.3468132 13.7268346,12.288112 C12.33324,10.918418 12.0977029,8.86387695 11.8621658,6.90717122 C11.4499759,3.60033854 11.0770421,1.72190104 7.74026638,1.64363281 C4.46237495,1.72190104 4.0698131,3.60033854 3.65762316,6.90717122 C3.42208605,8.88344401 3.16692084,10.918418 1.79295437,12.288112 C1.7340701,12.3468132 1.714442,12.3859473 1.69481391,12.4055143 Z M7.72063829,17.6103516 C6.22890327,17.6103516 5.03158963,16.4167611 5.03158963,14.9296647 C5.03158963,14.5383236 5.110102,14.1665495 5.28675483,13.7947754 C5.38489529,13.5599707 5.6204324,13.4230013 5.8755976,13.4425684 C7.05328315,13.5012695 8.36836534,13.5012695 9.54605089,13.4425684 C9.80121609,13.4230013 10.0367532,13.5599707 10.1348937,13.7947754 C10.3115465,14.1665495 10.3900589,14.5383236 10.3900589,14.9296647 C10.409687,16.4167611 9.21237332,17.6103516 7.72063829,17.6103516 Z M6.28778754,14.69486 C6.26815945,14.7731283 6.26815945,14.8513965 6.26815945,14.9296647 C6.26815945,15.7319141 6.9158865,16.377627 7.72063829,16.377627 C8.52539008,16.377627 9.17311713,15.7319141 9.17311713,14.9296647 C9.17311713,14.8513965 9.17311713,14.7731283 9.15348904,14.69486 C8.2309687,14.7339941 7.22993598,14.7339941 6.28778754,14.69486 Z" id="path-1"></path>
    </defs>
    <g id="Symbols:-ATOMS" stroke="none" stroke-width="1" fill="none" fill-rule="evenodd">
        <g id="ATOM-/ICO-/Notification">
            <mask id="mask-2" fill="white">
                <use xlink:href="#path-1"></use>
            </mask>
            <use id="icon-bell" fill="#FFFFFF" fill-rule="nonzero" xlink:href="#path-1"></use>
        </g>
    </g>
</svg>