<?xml version="1.0" encoding="UTF-8"?>
<svg width="18px" height="14px" viewBox="0 0 18 14" version="1.1" xmlns="http://www.w3.org/2000/svg" xmlns:xlink="http://www.w3.org/1999/xlink">
    <!-- Generator: Sketch 46.2 (44496) - http://www.bohemiancoding.com/sketch -->
    <title>icon-share-closed</title>
    <desc>Created with Sketch.</desc>
    <defs>
        <path d="M17.851767,6.7219917 L11.8038587,1.11618257 C11.6852722,1 11.4777459,0.970954357 11.3295129,1.02904564 C11.1516332,1.08713693 11.0626934,1.26141079 11.0626934,1.43568465 L11.0626934,4.74688797 C1.27931234,5.0373444 0.0341547474,14.4190871 0.00450813807,14.5062241 C-0.0251384713,14.7095436 0.0934479661,14.9128631 0.300974231,14.9709544 C0.36026745,15 0.389914059,15 0.449207278,15 C0.597440325,15 0.745673371,14.9128631 0.834613199,14.7676349 C3.62139448,9.97510373 8.4537918,9.45228216 10.3808214,9.45228216 C10.6179943,9.45228216 10.8255205,9.45228216 11.0034002,9.4813278 L11.0034002,12.8215768 C11.0034002,12.9958506 11.1219866,13.1410788 11.2702197,13.2282158 C11.4480993,13.2863071 11.625979,13.2572614 11.7445654,13.1410788 L17.851767,7.36099585 C17.9407068,7.27385892 18,7.15767635 18,7.04149378 C18,6.9253112 17.9407068,6.80912863 17.851767,6.7219917 Z" id="path-1"></path>
    </defs>
    <g id="Symbols:-ATOMS" stroke="none" stroke-width="1" fill="none" fill-rule="evenodd">
        <g id="ATOM-/ICO-/Share" transform="translate(0.000000, -1.000000)">
            <mask id="mask-2" fill="white">
                <use xlink:href="#path-1"></use>
            </mask>
            <use id="icon-share-closed" fill="#545454" fill-rule="nonzero" xlink:href="#path-1"></use>
        </g>
    </g>
</svg>