<?xml version="1.0" encoding="UTF-8"?>
<svg width="40px" height="40px" viewBox="0 0 40 40" version="1.1" xmlns="http://www.w3.org/2000/svg" xmlns:xlink="http://www.w3.org/1999/xlink">
    <!-- Generator: Sketch 46.2 (44496) - http://www.bohemiancoding.com/sketch -->
    <title>ATOM /ICO /Twitter</title>
    <desc>Created with Sketch.</desc>
    <defs>
        <ellipse id="path-1" cx="19.6721311" cy="20" rx="19.6721311" ry="20"></ellipse>
        <path d="M17.6435375,2.65117014 C18.4908656,2.12736569 19.1394862,1.29657085 19.4468685,0.309607949 C18.6520743,0.794702185 17.7747473,1.14692823 16.8399222,1.33786174 C16.0913765,0.513481723 15.0266273,0 13.8455964,0 C11.5798527,0 9.74277288,1.8964685 9.74277288,4.23412281 C9.74277288,4.56566654 9.77898592,4.88946823 9.84898352,5.19914992 C9.91898112,5.5088316 3.4167042,3.33623026 1.39341648,0.774056739 C1.03971433,1.39847087 0.838506946,2.12607535 0.838506946,2.90271277 C0.838506946,4.37215236 1.56337493,5.6687232 2.66312292,6.42725899 C1.99078884,6.40406973 1.35841768,6.21309936 0.804793817,5.8957125 L0.804793817,5.94865332 C0.804793817,7.99988894 2.21949528,9.71183877 4.09532378,10.1014847 C3.75162128,10.196933 3.38924086,10.249837 3.01428944,10.249837 C2.74936996,10.249837 2.49316446,10.2227767 2.24195879,10.1711262 C2.76433373,11.8547254 4.27903176,13.0790003 6.07364876,13.1125492 C4.67019691,14.2478644 2.90057905,14.9226018 0.978502143,14.9226018 C0.647370646,14.9226018 0.321167552,14.9019563 0,14.8645364 C1.81586627,16.0682028 3.97161374,16.7700005 6.28860567,16.7700005 C13.8356682,16.7700005 17.9610266,10.3169347 17.9610266,4.72050738 L17.9472414,4.17222334 C18.7532852,3.57874051 19.4506541,2.83307126 19.9992781,1.98417478 C19.2631962,2.32087988 18.4733662,2.54923325 17.6435375,2.65117014 Z" id="path-3"></path>
    </defs>
    <g id="Symbols:-ATOMS" stroke="none" stroke-width="1" fill="none" fill-rule="evenodd">
        <g id="ATOM-/ICO-/Twitter">
            <g id="COL-/White-Copy">
                <mask id="mask-2" fill="white">
                    <use xlink:href="#path-1"></use>
                </mask>
                <g id="Mask"></g>
                <g id="COL-/Gray-66" mask="url(#mask-2)" fill="#A8A8A8">
                    <rect id="Gray-66---A8A8A8" x="0" y="0" width="40" height="40"></rect>
                </g>
            </g>
            <g id="COL-/White" transform="translate(10.000000, 12.000000)">
                <mask id="mask-4" fill="white">
                    <use xlink:href="#path-3"></use>
                </mask>
                <use id="Mask" fill="#9B9B9B" xlink:href="#path-3"></use>
                <g mask="url(#mask-4)" id="White-FFFFFF" fill="#FFFFFF">
                    <g transform="translate(-10.000000, -12.000000)">
                        <rect x="0" y="0" width="40" height="40"></rect>
                    </g>
                </g>
            </g>
        </g>
    </g>
</svg>