<?xml version="1.0" encoding="UTF-8"?>
<svg width="16px" height="16px" viewBox="0 0 16 16" version="1.1" xmlns="http://www.w3.org/2000/svg" xmlns:xlink="http://www.w3.org/1999/xlink">
    <!-- Generator: Sketch 46.2 (44496) - http://www.bohemiancoding.com/sketch -->
    <title>icon-clip</title>
    <desc>Created with Sketch.</desc>
    <defs>
        <path d="M3.88294652,16 C2.88193744,16 1.91321897,15.612317 1.1382442,14.869258 C-0.379414733,13.3508329 -0.379414733,10.8955073 1.1382442,9.37708228 L9.37235116,1.13881878 C10.8900101,-0.379606259 13.3440969,-0.379606259 14.8617558,1.13881878 C16.3794147,2.65724382 16.3794147,5.11256941 14.8617558,6.63099445 C14.6034309,6.88944977 14.2159435,6.88944977 13.9576186,6.63099445 C13.6992936,6.37253912 13.6992936,5.98485613 13.9576186,5.72640081 C14.9586276,4.72488642 14.9586276,3.07723372 13.9576186,2.07571933 C12.9566095,1.07420495 11.3097881,1.07420495 10.308779,2.07571933 L2.04238143,10.3139828 C1.04137235,11.3154972 1.04137235,12.9631499 2.04238143,13.9646643 C3.04339051,14.9661787 4.69021191,14.9661787 5.69122099,13.9646643 L11.1806256,8.47248864 C11.568113,8.08480565 11.568113,7.47097426 11.1806256,7.11559818 C10.8254289,6.76022211 10.1796165,6.76022211 9.82441978,7.11559818 L5.23915237,11.6708733 C4.98082745,11.9293286 4.59334006,11.9293286 4.33501514,11.6708733 C4.07669021,11.412418 4.07669021,11.024735 4.33501514,10.7662797 L8.88799193,6.21100454 C9.30776993,5.79101464 9.88900101,5.53255931 10.4702321,5.53255931 C11.0514632,5.53255931 11.6326942,5.75870772 12.0524723,6.21100454 C12.8920283,7.05098435 12.9243189,8.44018173 12.1170535,9.34477537 L12.1170535,9.34477537 L6.62764884,14.869258 C5.85267407,15.6446239 4.85166498,16 3.88294652,16 Z" id="path-1"></path>
    </defs>
    <g id="Symbols:-ATOMS" stroke="none" stroke-width="1" fill="none" fill-rule="evenodd">
        <g id="ATOM-/ICO-/Clipping">
            <g id="icon-clip">
                <mask id="mask-2" fill="white">
                    <use xlink:href="#path-1"></use>
                </mask>
                <use fill="#545454" fill-rule="nonzero" xlink:href="#path-1"></use>
            </g>
        </g>
    </g>
</svg>