<?xml version="1.0" encoding="UTF-8"?>
<svg width="100px" height="25px" viewBox="0 0 100 25" version="1.1" xmlns="http://www.w3.org/2000/svg" xmlns:xlink="http://www.w3.org/1999/xlink">
    <!-- Generator: Sketch 45 (43475) - http://www.bohemiancoding.com/sketch -->
    <title>Logo - Insurge</title>
    <desc>Created with Sketch.</desc>
    <defs></defs>
    <g id="Symbols" stroke="none" stroke-width="1" fill="none" fill-rule="evenodd">
        <g id="Logo---Insurge" fill="#FFFFFF">
            <path d="M7.425,2.15 C6.97499775,2.16666675 6.6333345,2.22083287 6.4,2.3125 C6.1666655,2.40416713 5.983334,2.5999985 5.85,2.9 C5.716666,3.2000015 5.65,3.67499675 5.65,4.325 L5.65,13.9 C5.65,14.833338 5.616667,15.5833305 5.55,16.15 C6.083336,16.0999997 6.70832975,16.075 7.425,16.075 L7.425,18 L0.25,18 L0.25,16.35 C0.70000225,16.3333332 1.0416655,16.2791671 1.275,16.1875 C1.5083345,16.0958329 1.691666,15.9000015 1.825,15.6 C1.958334,15.2999985 2.025,14.8250033 2.025,14.175 L2.025,4.6 C2.025,3.666662 2.058333,2.9166695 2.125,2.35 L0.25,2.425 L0.25,0.5 L7.425,0.5 L7.425,2.15 Z M22.8875,6.4 C23.5375033,7.266671 23.8625,8.67499025 23.8625,10.625 L23.8625,13.975 C23.8625,14.775004 23.829167,15.50833 23.7625,16.175 C24.3125028,16.1249998 24.854164,16.1 25.3875,16.1 L25.3875,18 L18.8375,18 L18.8375,16.375 C19.4708365,16.375 19.8791658,16.2000017 20.0625,15.85 C20.2458343,15.4999982 20.3375,14.9333373 20.3375,14.15 L20.3125,10.6 C20.3125,9.4999945 20.1583349,8.69166925 19.85,8.175 C19.5416651,7.65833075 19.020837,7.4 18.2875,7.4 C17.887498,7.4 17.4791688,7.48749912 17.0625,7.6625 C16.6458313,7.83750087 16.2958348,8.058332 16.0125,8.325 L16.0125,13.975 C16.0125,14.775004 15.979167,15.50833 15.9125,16.175 C16.445836,16.1249998 16.9874973,16.1 17.5375,16.1 L17.5375,18 L10.9875,18 L10.9875,16.375 C11.6208365,16.375 12.0249991,16.2000017 12.2,15.85 C12.3750009,15.4999982 12.4625,14.9333373 12.4625,14.15 L12.4625,9.95 C12.4625,9.19999625 12.495833,8.49167 12.5625,7.825 L10.8125,7.9 L10.8125,6 C11.8625053,6 12.7124968,5.92500075 13.3625,5.775 C14.0125033,5.62499925 14.4458322,5.450001 14.6625,5.25 L15.8875,5.25 C15.8875,5.2833335 15.920833,5.699996 15.9875,6.5 L16.0375,6.5 C16.5208358,6.11666475 17.1166631,5.78750137 17.825,5.5125 C18.5333369,5.23749863 19.1374975,5.1 19.6375,5.1 C21.1541743,5.1 22.2374968,5.533329 22.8875,6.4 Z M34.675,5.325 C35.2416695,5.47500075 35.7166648,5.683332 36.1,5.95 L36.125,5.95 L36.1,5.225 L38,5.225 L38,9.65 L36.375,9.65 C36.2249992,8.783329 35.8416697,8.1000025 35.225,7.6 C34.6083302,7.0999975 33.8500045,6.85 32.95,6.85 C32.483331,6.85 32.0916682,6.95833225 31.775,7.175 C31.4583317,7.39166775 31.3,7.72499775 31.3,8.175 C31.3,8.641669 31.4833315,8.98749887 31.85,9.2125 C32.2166685,9.43750113 32.833329,9.69166525 33.7,9.975 C33.8000005,9.99166675 34.016665,10.0583327 34.35,10.175 C35.7666737,10.6750025 36.8541629,11.25833 37.6125,11.925 C38.3708371,12.59167 38.75,13.4666613 38.75,14.55 C38.75,15.3833375 38.5375021,16.0874971 38.1125,16.6625 C37.6874979,17.2375029 37.1291701,17.6708319 36.4375,17.9625 C35.7458299,18.2541681 35.000004,18.4 34.2,18.4 C33.4833297,18.4 32.7833367,18.3083343 32.1,18.125 C31.4166632,17.9416657 30.8833352,17.7083347 30.5,17.425 L30.475,17.425 L30.55,18.175 L28.65,18.175 L28.55,13.875 L30.175,13.875 C30.2583337,14.6416705 30.6624964,15.2874974 31.3875,15.8125 C32.1125036,16.3375026 32.9999947,16.6 34.05,16.6 C34.516669,16.6 34.9208316,16.4916677 35.2625,16.275 C35.6041684,16.0583322 35.775,15.750002 35.775,15.35 C35.775,15.0499985 35.6666678,14.800001 35.45,14.6 C35.2333323,14.399999 34.9750015,14.233334 34.675,14.1 C34.3749985,13.966666 33.7750045,13.7250017 32.875,13.375 C31.808328,12.9583313 31.008336,12.616668 30.475,12.35 C29.941664,12.083332 29.4625021,11.6875026 29.0375,11.1625 C28.6124979,10.6374974 28.4,9.9583375 28.4,9.125 C28.4,8.44166325 28.5708316,7.79583638 28.9125,7.1875 C29.2541684,6.57916363 29.7791631,6.07916862 30.4875,5.6875 C31.1958369,5.29583138 32.0666615,5.1 33.1,5.1 C33.5833358,5.1 34.1083305,5.17499925 34.675,5.325 Z M54.4375,13.975 C54.4375,14.775004 54.404167,15.50833 54.3375,16.175 C54.870836,16.1249998 55.4124973,16.1 55.9625,16.1 L55.9625,18 L51.2125,18 L51.0625,16.7 L51.0375,16.7 C50.4208302,17.233336 49.8250029,17.6499985 49.25,17.95 C48.6749971,18.2500015 48.0291702,18.4 47.3125,18.4 C45.8291593,18.4 44.7666699,17.966671 44.125,17.1 C43.4833301,16.233329 43.1625,14.8250097 43.1625,12.875 L43.1625,10 C43.1625,9.2999965 43.1874998,8.57500375 43.2375,7.825 L41.4875,7.9 L41.4875,6 C42.5375052,6 43.3874967,5.92500075 44.0375,5.775 C44.6875032,5.62499925 45.1208323,5.450001 45.3375,5.25 L46.7125,5.25 L46.7125,12.9 C46.7125,14.0000055 46.8541652,14.8083307 47.1375,15.325 C47.4208347,15.8416692 47.8708302,16.1 48.4875,16.1 C48.9041687,16.1 49.3333311,15.9833345 49.775,15.75 C50.2166689,15.5166655 50.5874985,15.233335 50.8875,14.9 L50.8875,10 C50.8875,9.21666275 50.920833,8.49167 50.9875,7.825 L49.2375,7.9 L49.2375,6 C50.2875053,6 51.1333301,5.92500075 51.775,5.775 C52.4166699,5.62499925 52.8458323,5.450001 53.0625,5.25 L54.4375,5.25 L54.4375,13.975 Z M69.3625,5.625 C69.7708354,5.97500175 69.975,6.49166325 69.975,7.175 C69.975,7.6083355 69.8333347,8.0083315 69.55,8.375 C69.2666653,8.7416685 68.8416695,8.925 68.275,8.925 C67.8583313,8.925 67.4875016,8.81666775 67.1625,8.6 C66.8374984,8.38333225 66.6500003,8.008336 66.6,7.475 C66.133331,7.475 65.6541691,7.74583063 65.1625,8.2875 C64.6708309,8.82916937 64.3416675,9.366664 64.175,9.9 L64.175,13.975 C64.175,14.775004 64.141667,15.50833 64.075,16.175 C64.608336,16.1249998 65.1499972,16.1 65.7,16.1 L65.7,18 L59.15,18 L59.15,16.375 C59.7833365,16.375 60.1874991,16.2000017 60.3625,15.85 C60.5375009,15.4999982 60.625,14.9333373 60.625,14.15 L60.625,9.95 C60.625,9.19999625 60.658333,8.49167 60.725,7.825 L58.975,7.9 L58.975,6 C60.0250052,6 60.8749967,5.92500075 61.525,5.775 C62.1750033,5.62499925 62.6083323,5.450001 62.825,5.25 L64.05,5.25 C64.0833335,5.50000125 64.1083333,5.824998 64.125,6.225 C64.1416667,6.625002 64.15,7.01666475 64.15,7.4 L64.2,7.4 C65.333339,5.866659 66.533327,5.1 67.8,5.1 C68.4333365,5.1 68.9541646,5.27499825 69.3625,5.625 Z M85.7125,3.275 C86.0125015,3.55833475 86.1625,3.9499975 86.1625,4.45 C86.1625,4.83333525 86.0416679,5.18333175 85.8,5.5 C85.5583321,5.81666825 85.1791693,5.975 84.6625,5.975 C84.395832,5.975 84.1333346,5.87916763 83.875,5.6875 C83.6166654,5.49583237 83.4625003,5.266668 83.4125,5 C83.1958322,5.066667 82.9791677,5.27916487 82.7625,5.6375 C82.5458322,5.99583512 82.4208335,6.3249985 82.3875,6.625 C82.854169,7.04166875 83.2166654,7.52499725 83.475,8.075 C83.7333346,8.62500275 83.8625,9.2166635 83.8625,9.85 C83.8625,10.783338 83.595836,11.6291629 83.0625,12.3875 C82.529164,13.1458371 81.829171,13.7374979 80.9625,14.1625 C80.095829,14.5875021 79.1708383,14.8 78.1875,14.8 L77.4875,14.775 C77.1208315,14.7416665 76.8541675,14.725 76.6875,14.725 C76.3208315,14.725 76.0125012,14.791666 75.7625,14.925 C75.5124988,15.058334 75.3875,15.2416655 75.3875,15.475 C75.3875,15.7750015 75.6166644,15.9874994 76.075,16.1125 C76.5333356,16.2375006 77.3708272,16.333333 78.5875,16.4 C80.6875105,16.5166672 82.2791613,16.8666638 83.3625,17.45 C84.4458388,18.0333362 84.9875,19.0083265 84.9875,20.375 C84.9875,21.2750045 84.6416701,22.05833 83.95,22.725 C83.2583299,23.39167 82.3666721,23.8999982 81.275,24.25 C80.1833279,24.6000018 79.0625058,24.775 77.9125,24.775 C75.8958233,24.775 74.4416711,24.4666698 73.55,23.85 C72.6583289,23.2333303 72.2125,22.4500048 72.2125,21.5 C72.2125,20.9166637 72.3999981,20.3708359 72.775,19.8625 C73.1500019,19.3541641 73.7541625,18.9416682 74.5875,18.625 C73.9374968,18.4416657 73.4666681,18.1583353 73.175,17.775 C72.8833319,17.3916648 72.7375,16.9416693 72.7375,16.425 C72.7375,15.9249975 72.9333314,15.4166692 73.325,14.9 C73.7166686,14.3833307 74.3291625,14.0000013 75.1625,13.75 L75.1625,13.725 C74.4124963,13.4249985 73.8166689,12.9541699 73.375,12.3125 C72.9333311,11.6708301 72.7125,10.9083378 72.7125,10.025 C72.7125,9.091662 72.9749974,8.25000375 73.5,7.5 C74.0250026,6.74999625 74.7166624,6.16250212 75.575,5.7375 C76.4333376,5.31249787 77.3374953,5.1 78.2875,5.1 C78.7875025,5.1 79.3124973,5.16249938 79.8625,5.2875 C80.4125027,5.41250062 80.8791648,5.608332 81.2625,5.875 C81.5791683,5.008329 82.004164,4.28750287 82.5375,3.7125 C83.070836,3.13749712 83.704163,2.85 84.4375,2.85 C84.9875028,2.85 85.4124985,2.99166525 85.7125,3.275 Z M76.7375,7.65 C76.3541648,8.23333625 76.1625,8.924996 76.1625,9.725 C76.1625,10.658338 76.3541648,11.45833 76.7375,12.125 C77.1208353,12.79167 77.6374968,13.125 78.2875,13.125 C78.9208365,13.125 79.4249981,12.8416695 79.8,12.275 C80.1750019,11.7083305 80.3625,11.0500038 80.3625,10.3 C80.3625,9.34999525 80.1791685,8.5250035 79.8125,7.825 C79.4458315,7.1249965 78.92917,6.775 78.2625,6.775 C77.6291635,6.775 77.1208353,7.06666375 76.7375,7.65 Z M75.5,19.975 C75.3583326,20.2916683 75.2875,20.6083318 75.2875,20.925 C75.2875,21.5750033 75.5916636,22.0916647 76.2,22.475 C76.8083364,22.8583352 77.6208282,23.05 78.6375,23.05 C79.3875038,23.05 80.0333306,22.950001 80.575,22.75 C81.1166694,22.549999 81.5291653,22.2958349 81.8125,21.9875 C82.0958347,21.6791651 82.2375,21.3666683 82.2375,21.05 C82.2375,20.5333308 81.9416696,20.141668 81.35,19.875 C80.7583304,19.608332 79.8541728,19.4500003 78.6375,19.4 C78.504166,19.3833332 78.2875015,19.375 77.9875,19.375 C77.8208325,19.3583333 77.5291687,19.3375001 77.1125,19.3125 C76.6958313,19.2874999 76.354168,19.2500002 76.0875,19.2 C75.8374988,19.400001 75.6416674,19.6583318 75.5,19.975 Z M97.8875,6.525 C98.9625054,7.47500475 99.4916668,9.05832225 99.475,11.275 L91.275,11.425 C91.275,12.891674 91.5541639,14.0499958 92.1125,14.9 C92.6708361,15.7500042 93.5666605,16.175 94.8,16.175 C95.3833363,16.175 96.00833,16.0250015 96.675,15.725 C97.34167,15.4249985 97.941664,14.9500033 98.475,14.3 L99.6,15.35 C98.1833262,17.3833435 96.241679,18.4 93.775,18.4 C92.5583272,18.4 91.483338,18.1291694 90.55,17.5875 C89.616662,17.0458306 88.8916693,16.275005 88.375,15.275 C87.8583307,14.274995 87.6,13.10834 87.6,11.775 C87.6,10.6083275 87.8624974,9.51250512 88.3875,8.4875 C88.9125026,7.46249487 89.6499953,6.64166975 90.6,6.025 C91.5500048,5.40833025 92.6333273,5.1 93.85,5.1 C95.4666748,5.1 96.8124946,5.57499525 97.8875,6.525 Z M92.2625,7.6125 C91.8374979,8.12083587 91.558334,8.808329 91.425,9.675 L96.025,9.675 C95.9749997,7.79165725 95.2916733,6.85 93.975,6.85 C93.2583298,6.85 92.6875021,7.10416412 92.2625,7.6125 Z" id="Insurge-logo"></path>
        </g>
    </g>
</svg>