<?xml version="1.0" encoding="UTF-8"?>
<svg width="35px" height="35px" viewBox="0 0 35 35" version="1.1" xmlns="http://www.w3.org/2000/svg" xmlns:xlink="http://www.w3.org/1999/xlink">
    <!-- Generator: Sketch 45 (43475) - http://www.bohemiancoding.com/sketch -->
    <title>twitter</title>
    <desc>Created with Sketch.</desc>
    <defs></defs>
    <g id="mobile-designs" stroke="none" stroke-width="1" fill="none" fill-rule="evenodd">
        <g id="profile-other" transform="translate(-29.000000, -518.000000)">
            <g id="Group" transform="translate(30.000000, 519.000000)">
                <g id="twitter">
                    <ellipse id="container-copy" stroke="#9B9B9B" cx="16.7213115" cy="16.5" rx="16.7213115" ry="16.5"></ellipse>
                    <path d="M22.0471707,12.7928642 C22.6375435,12.4386394 23.0894676,11.8768111 23.3036351,11.2093736 C22.7498651,11.5374205 22.1385906,11.7756147 21.4872546,11.9047342 C20.965708,11.347244 20.2238477,11 19.4009686,11 C17.8223197,11 16.5423409,12.2824943 16.5423409,13.8633421 C16.5423409,14.0875499 16.5675722,14.306522 16.6163428,14.5159455 C16.6651133,14.7253689 12.1346749,13.2561388 10.7249564,11.5234589 C10.4785156,11.9457214 10.3383251,12.4377668 10.3383251,12.9629709 C10.3383251,13.9566852 10.8433743,14.8334963 11.6096198,15.3464591 C11.1411734,15.3307772 10.7005711,15.2016328 10.3148356,14.9869987 L10.3148356,15.0228001 C10.3148356,16.4099562 11.3005238,17.567669 12.6075007,17.8311686 C12.3680272,17.8957159 12.1155399,17.9314924 11.8542939,17.9314924 C11.6697121,17.9314924 11.4912019,17.9131928 11.3161752,17.8782639 C11.6801381,19.0168045 12.7354986,19.8447252 13.9858916,19.8674127 C13.0080415,20.6351741 11.7750665,21.0914679 10.4358663,21.0914679 C10.2051516,21.0914679 9.97787072,21.0775063 9.75409836,21.052201 C11.0192968,21.8661851 12.5213062,22.3407785 14.1356621,22.3407785 C19.3940512,22.3407785 22.2683801,17.9768675 22.2683801,14.1922616 L22.2587753,13.8214824 C22.8203834,13.4201373 23.3062727,12.9158755 23.6885246,12.341806 C23.1756621,12.5695041 22.6253509,12.723929 22.0471707,12.7928642 Z" fill="#9B9B9B"></path>
                </g>
            </g>
        </g>
    </g>
</svg>